<svg viewBox="0 0 640 480" xmlns="http://www.w3.org/2000/svg"><path d="M258 292.8c-6.5-5.4-6.3-20.2-18.4-15-11.6-1.3-14.4-16-9-24.6 4.8-9.6 14-16.3 18-26.4-9.2-5-13.8 7.8-16.7 14.3-4.5 9.4-9 20.8-19.2 25-11.8 3.7-7.5-16-17-12.4-9.8 3.3-15.7-7.3-7.5-13.2 0-10.6 1.3-22 12.4-27 13.8-9.3 32-11.8 47.7-6-7.4 7-20.2 3-27.7 10.6-7.7 8 4.7 16.4 11.7 9.2 7.5-2 20.6-16.7 25-5.6-3.8 7-14 22.3 1 23 9.4-3.5 10.5 15.4 18.5 6.2 4.8-9-4-17.3-4.4-26.5 2.3-10.8 5.4 5.2 7.3 9 6 13 19.2 24 17.7 39.8-4.3 9-15.2 12-20.2 20.7-5.6 4.4-15 5.3-19.6-1zM249.7 182c-18.5-2.4-39-11.7-45.3-30.6-4.5-10.5 11.2-14 6-23.4-.6-11.7 15-19.3 23.3-10.7 7 7.4 16-6 22.2 4.3 7.8 8 4.6 19.3 3.6 29.2-.3 9 1.8 18 5 26.4-6.2 2.4-8-12.5-12.3-16.7-3.4-6.8-8-18.2-17.7-14.7-6.4 7 2.8 16 5.8 22.7 2.4 4 19 12.6 9.4 13.6zm66.8-11.5c-12 5.7-21.6 15-30 25.2 9 3.7 15.4-11.5 24-5.6 1.8 5-3 11 5.8 10 11-4 16.5 13.3 4.5 15-6.4 2-18.3-7.3-13.2 3.8 3.4 12.4-15.5 9.7-17.7.6-2-5-9.2-12-9.4-2.3 1 9.2 5.8 17.8 11.3 25 6.4 7.7 15.4 15.3 26 15.3 11.3-1 18.8-12.3 19.4-23 4.4-8.5 17.2-7 21.5-16.2 6.6-9 6-24.7-4.8-30.5-6.8-7.4-10-21.4-22.7-19.8-5 0-10.2 1-15 2.8zm-4.8-58c-8.6 1.2-10 19.4-18 8.7-9.2-5.4-17.6 4.5-22 11.7-8.5 15.8-5.7 35.2.4 51.4 5 4.3-1-8.2.6-11 1-6.5 2-19.5 9.7-20.2 2 5.5 7.7 9.8 9.7 1.3 5.5-9 20 0 9.6 7.4-7.2 8-18 16.3-18.7 28 7-1.3 12-12.6 20-15.6 9-6.4 19.6-9.4 29-15 9.7-6.3 10.5-21 0-26 0-10.2-3-24.2-16.7-21.6l-1.8.3-1.7.6z" fill="#f55"/><path d="M164 212c-3.6-3-14.2 2-12-6.2-2.2-3.8-10-7.6-3.5-12 4.8-3-1.3-9 4.5-11.7 4-3.4 6.6 2 4.5 5.2 1.3 7.3 10.6 6 15.2 2.8 4.7-1.5 2.5-6.3-1.7-5.8-6.4-1.8-.3-10.8 3.7-5.3 1.4 5.3 6.7 10 12 6 3.7-2.3.6-5.5-2.6-5.7-4.7-2-1.4-10.8 3-6.6 2 4.6 4.5 12.7 11.2 9.8 4.6-2.5-.3-6.6-3-8-3-5.5 7.2-8.4 6.2-1.5-.8 7 6 9 11.7 7.6 10.4-1.3 21 0 31 2.2 10 2.6 19.7 7 27 14 3.5 5.8-3.2 14-9.5 11.3-7.4-1.6-13-7.4-20-10-13-6.4-27.4-11-42.2-11-6.8 1.3.4 11.8-6.2 13-6-.8-2.4-9 .6-10.6-2.4-5-11.8-.7-11.3 4.4 1 4-.2 11.5-5.7 7.4-4.2-4.5 6-6 3.2-10.2-4.4-2.6-9.5 2.6-12.7 5.3-4.6 4.8 3.7 9.5 1.3 14.5-1 1.3-2.7 1.5-4.2 1.2z" fill="#ffb380"/><path d="M338.5 312.3c-11.2-1.2-21-9.5-25-20-2.8-6.6-5.4-14-4.5-21.2.6-1.7 1-5.6 2.5-2 7 9.8 16 18.7 26.8 24.2 6.7 3.4 14.5 4 21.8 2.3 3.2-.8 8.8-2.7 6.7-7-2-3.2-6.2-3.4-9.5-4.4-9.4-2-19.8-1.3-28-7-4.2-2.8-7.5-6.6-11-10 6.5-.4 13.7-1 18.4-6 2.8-2.7 4.3-6.4 7-9 4.7-2.4 10 0 14.5 2 6.8 3.3 12.6 8.6 15.6 15.6 4 7.7 7.2 15.7 9.8 24 .6 4-3 7.4-6 10-9.3 7-21.6 9.3-33 9.2-2 0-4-.2-6-.5zm-61.4 67c-12.2-6.8-21-20-22-34-.8-10.2 1.5-21.2 8.3-29.2 3-3.3 7.2-5.8 11.8-6.7-.8 5.8-3.8 11-5 16.6-2 9-3.3 19.3 1 28 1.2 3 6.2 9.5 8.5 4.4 1.7-5.2 1.2-10.7 1.5-16 .4-12.7.7-25.8 6-37.5 2-4.6 5.8-9.2 11-10.2 5 0 8 4.7 10.5 8.4 6 10.4 5 23.4 1 34.4-4.8 14-15.6 24.6-21.6 38-.5 4-4.2 7.8-8.2 4.8l-2.7-1.2z" fill="#677821"/></svg>